<?xml version="1.0" encoding="UTF-8" standalone="no"?>
<svg
   xmlns:dc="http://purl.org/dc/elements/1.1/"
   xmlns:cc="http://creativecommons.org/ns#"
   xmlns:rdf="http://www.w3.org/1999/02/22-rdf-syntax-ns#"
   xmlns:svg="http://www.w3.org/2000/svg"
   xmlns="http://www.w3.org/2000/svg"
   xmlns:sodipodi="http://sodipodi.sourceforge.net/DTD/sodipodi-0.dtd"
   xmlns:inkscape="http://www.inkscape.org/namespaces/inkscape"
   style="clip-rule:evenodd;fill-rule:evenodd;image-rendering:optimizeQuality;shape-rendering:geometricPrecision;text-rendering:geometricPrecision"
   xml:space="preserve"
   viewBox="0 0 1519.7703 1191.1188"
   version="1.1"
   id="svg11"
   sodipodi:docname="contacts.svg"
   width="1519.7703"
   height="1191.1188"
   inkscape:version="1.0.1 (0767f8302a, 2020-10-17)"><sodipodi:namedview
   pagecolor="#ffffff"
   bordercolor="#666666"
   borderopacity="1"
   objecttolerance="10"
   gridtolerance="10"
   guidetolerance="10"
   inkscape:pageopacity="0"
   inkscape:pageshadow="2"
   inkscape:window-width="2488"
   inkscape:window-height="1376"
   id="namedview13"
   showgrid="false"
   fit-margin-top="0"
   fit-margin-left="0"
   fit-margin-right="0"
   fit-margin-bottom="0"
   inkscape:zoom="0.45590231"
   inkscape:cx="748.59733"
   inkscape:cy="654.4756"
   inkscape:window-x="72"
   inkscape:window-y="27"
   inkscape:window-maximized="1"
   inkscape:current-layer="Layer_x0020_1"
   inkscape:document-rotation="0" />
 <defs
   id="defs4">
  <style
   type="text/css"
   id="style2">
    .fil0 {fill:black}
  </style>
 </defs>
 <g
   id="Layer_x0020_1"
   transform="translate(-108.40267,-492.35616)">
  <path
   class="fil0"
   d="m 1302.9087,1593.508 c 0,-317.8472 -196.2076,-575.3573 -437.89037,-575.3573 -241.68276,0 -437.89034,257.5101 -437.89034,575.3573 0,49.5626 196.20758,89.9669 437.89034,89.9669 241.68277,0 437.89037,-40.4043 437.89037,-89.9669 z M 865.01833,492.35616 c 131.82697,0 238.61707,112.59331 238.61707,251.58409 0,138.99078 -106.7901,251.58409 -238.61707,251.58409 -131.82696,0 -238.61702,-112.59331 -238.61702,-251.58409 0,-138.99078 106.79006,-251.58409 238.61702,-251.58409 z"
   id="path6"
   style="fill:#1877f2;fill-opacity:1;stroke-width:0.524657" />
 <path
   class="fil0"
   d="m 581.30234,1390.1304 c 0,-179.1492 -105.94718,-324.2905 -236.44983,-324.2905 -130.50265,0 -236.44984,145.1413 -236.44984,324.2905 0,27.9352 105.94719,50.7084 236.44984,50.7084 130.50265,0 236.44983,-22.7732 236.44983,-50.7084 z M 344.85251,769.48455 c 71.18327,0 128.84725,63.46135 128.84725,141.80118 0,78.33985 -57.66398,141.80117 -128.84725,141.80117 -71.18328,0 -128.8472,-63.46132 -128.8472,-141.80117 0,-78.33983 57.66392,-141.80118 128.8472,-141.80118 z"
   id="path6-8"
   style="clip-rule:evenodd;fill:#1877f2;fill-opacity:1;fill-rule:evenodd;stroke-width:0.289441;image-rendering:optimizeQuality;shape-rendering:geometricPrecision;text-rendering:geometricPrecision" /><path
   class="fil0"
   d="m 1628.1729,1393.9325 c 0,-179.1492 -105.9472,-324.2905 -236.4499,-324.2905 -130.5026,0 -236.4498,145.1413 -236.4498,324.2905 0,27.9352 105.9472,50.7084 236.4498,50.7084 130.5027,0 236.4499,-22.7732 236.4499,-50.7084 z M 1391.723,773.2867 c 71.1833,0 128.8473,63.46135 128.8473,141.80118 0,78.33985 -57.664,141.80112 -128.8473,141.80112 -71.1832,0 -128.8472,-63.46127 -128.8472,-141.80112 0,-78.33983 57.664,-141.80118 128.8472,-141.80118 z"
   id="path6-8-3"
   style="clip-rule:evenodd;fill:#1877f2;fill-opacity:1;fill-rule:evenodd;stroke-width:0.289441;image-rendering:optimizeQuality;shape-rendering:geometricPrecision;text-rendering:geometricPrecision" /></g>
<metadata
   id="metadata9"><rdf:RDF><cc:Work><dc:format>image/svg+xml</dc:format><dc:type
         rdf:resource="http://purl.org/dc/dcmitype/StillImage" /><cc:license
         rdf:resource="http://creativecommons.org/publicdomain/zero/1.0/" /><dc:publisher><cc:Agent
           rdf:about="http://openclipart.org/"><dc:title>Openclipart</dc:title></cc:Agent></dc:publisher><dc:title /></cc:Work><cc:License
       rdf:about="http://creativecommons.org/publicdomain/zero/1.0/"><cc:permits
         rdf:resource="http://creativecommons.org/ns#Reproduction" /><cc:permits
         rdf:resource="http://creativecommons.org/ns#Distribution" /><cc:permits
         rdf:resource="http://creativecommons.org/ns#DerivativeWorks" /></cc:License></rdf:RDF></metadata></svg>
