<?xml version="1.0" encoding="UTF-8" standalone="no"?>
<svg
   xmlns:dc="http://purl.org/dc/elements/1.1/"
   xmlns:cc="http://creativecommons.org/ns#"
   xmlns:rdf="http://www.w3.org/1999/02/22-rdf-syntax-ns#"
   xmlns:svg="http://www.w3.org/2000/svg"
   xmlns="http://www.w3.org/2000/svg"
   xmlns:sodipodi="http://sodipodi.sourceforge.net/DTD/sodipodi-0.dtd"
   xmlns:inkscape="http://www.inkscape.org/namespaces/inkscape"
   style="clip-rule:evenodd;fill-rule:evenodd;image-rendering:optimizeQuality;shape-rendering:geometricPrecision;text-rendering:geometricPrecision"
   xml:space="preserve"
   viewBox="0 0 150 117.56238"
   version="1.1"
   id="svg11"
   sodipodi:docname="contacts.svg"
   width="150"
   height="117.56238"
   inkscape:version="1.0.1 (0767f8302a, 2020-10-17)"><sodipodi:namedview
   pagecolor="#ffffff"
   bordercolor="#666666"
   borderopacity="1"
   objecttolerance="10"
   gridtolerance="10"
   guidetolerance="10"
   inkscape:pageopacity="0"
   inkscape:pageshadow="2"
   inkscape:window-width="2488"
   inkscape:window-height="1376"
   id="namedview13"
   showgrid="false"
   fit-margin-top="0"
   fit-margin-left="0"
   fit-margin-right="0"
   fit-margin-bottom="0"
   inkscape:zoom="0.45590231"
   inkscape:cx="748.59733"
   inkscape:cy="654.4756"
   inkscape:window-x="72"
   inkscape:window-y="27"
   inkscape:window-maximized="1"
   inkscape:current-layer="Layer_x0020_1"
   inkscape:document-rotation="0" />
 <defs
   id="defs4">
  <style
   type="text/css"
   id="style2">
    .fil0 {fill:black}
  </style>
 </defs>
 <g
   id="Layer_x0020_1"
   transform="translate(-108.40267,-492.35616)">
  <path
   class="fil0"
   d="m 226.29938,601.03889 c 0,-31.37124 -19.36552,-56.78727 -43.2194,-56.78727 -23.85388,0 -43.2194,25.41603 -43.2194,56.78727 0,4.89178 19.36552,8.87965 43.2194,8.87965 23.85388,0 43.2194,-3.98787 43.2194,-8.87965 z m -43.2194,-108.68273 c 13.0112,0 23.55129,11.11286 23.55129,24.83113 0,13.71827 -10.54009,24.83113 -23.55129,24.83113 -13.01121,0 -23.55129,-11.11286 -23.55129,-24.83113 0,-13.71827 10.54008,-24.83113 23.55129,-24.83113 z"
   id="path6"
   style="fill:#1877f2;fill-opacity:1;stroke-width:0.0517832" />
 <path
   class="fil0"
   d="m 155.07746,580.9657 c 0,-17.68187 -10.4569,-32.00719 -23.3374,-32.00719 -12.88049,0 -23.33739,14.32532 -23.33739,32.00719 0,2.75718 10.4569,5.00487 23.33739,5.00487 12.8805,0 23.3374,-2.24769 23.3374,-5.00487 z m -23.3374,-61.25721 c 7.02573,0 12.71712,6.26358 12.71712,13.99565 0,7.73208 -5.69139,13.99566 -12.71712,13.99566 -7.02572,0 -12.7171,-6.26358 -12.7171,-13.99566 0,-7.73207 5.69138,-13.99565 12.7171,-13.99565 z"
   id="path6-8"
   style="clip-rule:evenodd;fill:#1877f2;fill-opacity:1;fill-rule:evenodd;stroke-width:0.0285676;image-rendering:optimizeQuality;shape-rendering:geometricPrecision;text-rendering:geometricPrecision" /><path
   class="fil0"
   d="m 258.40267,581.34096 c 0,-17.68187 -10.4569,-32.00719 -23.3374,-32.00719 -12.88049,0 -23.33739,14.32532 -23.33739,32.00719 0,2.75718 10.4569,5.00488 23.33739,5.00488 12.8805,0 23.3374,-2.2477 23.3374,-5.00488 z m -23.3374,-61.2572 c 7.02573,0 12.71712,6.26358 12.71712,13.99565 0,7.73208 -5.69139,13.99565 -12.71712,13.99565 -7.02572,0 -12.71711,-6.26357 -12.71711,-13.99565 0,-7.73207 5.69139,-13.99565 12.71711,-13.99565 z"
   id="path6-8-3"
   style="clip-rule:evenodd;fill:#1877f2;fill-opacity:1;fill-rule:evenodd;stroke-width:0.0285676;image-rendering:optimizeQuality;shape-rendering:geometricPrecision;text-rendering:geometricPrecision" /></g>
<metadata
   id="metadata9"><rdf:RDF><cc:Work><dc:format>image/svg+xml</dc:format><dc:type
         rdf:resource="http://purl.org/dc/dcmitype/StillImage" /><cc:license
         rdf:resource="http://creativecommons.org/publicdomain/zero/1.0/" /><dc:publisher><cc:Agent
           rdf:about="http://openclipart.org/"><dc:title>Openclipart</dc:title></cc:Agent></dc:publisher><dc:title></dc:title></cc:Work><cc:License
       rdf:about="http://creativecommons.org/publicdomain/zero/1.0/"><cc:permits
         rdf:resource="http://creativecommons.org/ns#Reproduction" /><cc:permits
         rdf:resource="http://creativecommons.org/ns#Distribution" /><cc:permits
         rdf:resource="http://creativecommons.org/ns#DerivativeWorks" /></cc:License></rdf:RDF></metadata></svg>
