<?xml version="1.0" encoding="UTF-8" standalone="no"?>
<svg
   xmlns:dc="http://purl.org/dc/elements/1.1/"
   xmlns:cc="http://creativecommons.org/ns#"
   xmlns:rdf="http://www.w3.org/1999/02/22-rdf-syntax-ns#"
   xmlns:svg="http://www.w3.org/2000/svg"
   xmlns="http://www.w3.org/2000/svg"
   xmlns:sodipodi="http://sodipodi.sourceforge.net/DTD/sodipodi-0.dtd"
   xmlns:inkscape="http://www.inkscape.org/namespaces/inkscape"
   version="1.1"
   id="Layer_1"
   x="0px"
   y="0px"
   width="130"
   height="152.614"
   viewBox="0 0 130 152.614"
   xml:space="preserve"
   sodipodi:docname="delete-icon-outline.svg"
   inkscape:version="1.0.2 (394de47547, 2021-03-26)"><metadata
   id="metadata9"><rdf:RDF><cc:Work
       rdf:about=""><dc:format>image/svg+xml</dc:format><dc:type
         rdf:resource="http://purl.org/dc/dcmitype/StillImage" /><dc:title></dc:title></cc:Work></rdf:RDF></metadata><defs
   id="defs7" /><sodipodi:namedview
   pagecolor="#ffffff"
   bordercolor="#666666"
   borderopacity="1"
   objecttolerance="10"
   gridtolerance="10"
   guidetolerance="10"
   inkscape:pageopacity="0"
   inkscape:pageshadow="2"
   inkscape:window-width="2488"
   inkscape:window-height="1376"
   id="namedview5"
   showgrid="false"
   fit-margin-top="0"
   fit-margin-left="0"
   fit-margin-right="0"
   fit-margin-bottom="0"
   inkscape:zoom="0.97968464"
   inkscape:cx="10"
   inkscape:cy="11.190476"
   inkscape:window-x="72"
   inkscape:window-y="27"
   inkscape:window-maximized="1"
   inkscape:current-layer="Layer_1"
   inkscape:document-rotation="0" />
<path
   d="M 120.79545,54.545582 105.56818,145.4549 c -0.49204,2.69091 -2.83295,4.64887 -5.56818,4.6591 H 30 c -2.735227,-0.0102 -5.076136,-1.96819 -5.568182,-4.6591 L 9.2045455,54.545582 c -0.5022728,-3.097736 1.6022725,-6.015925 4.6988635,-6.518198 0.2875,-0.04659 0.578409,-0.07046 0.869318,-0.07273 H 115.11364 c 3.1375,-0.04091 5.71363,2.470461 5.75454,5.607969 0.005,0.329545 -0.0204,0.657956 -0.0727,0.982957 z M 127.5,30.90916 c 0,3.137508 -2.54432,5.681832 -5.68182,5.681832 H 8.1818182 C 5.0443182,36.590992 2.5,34.046668 2.5,30.90916 2.5,27.771653 5.0443182,25.227328 8.1818182,25.227328 H 36.590909 V 8.1818321 C 36.590909,5.0443244 39.135227,2.5 42.272727,2.5 h 45.454546 c 3.1375,0 5.681818,2.5443244 5.681818,5.6818321 V 25.227328 h 28.409089 c 3.1375,0 5.68182,2.544325 5.68182,5.681832 z M 82.045455,25.227328 V 13.863664 h -34.09091 v 11.363664 z"
   id="path2"
   style="fill:#000000;fill-opacity:1;stroke:none;stroke-width:5;stroke-miterlimit:4;stroke-dasharray:none;stroke-opacity:1" />
</svg>
