<?xml version="1.0" encoding="UTF-8" standalone="no"?>
<svg
   xmlns:dc="http://purl.org/dc/elements/1.1/"
   xmlns:cc="http://creativecommons.org/ns#"
   xmlns:rdf="http://www.w3.org/1999/02/22-rdf-syntax-ns#"
   xmlns:svg="http://www.w3.org/2000/svg"
   xmlns="http://www.w3.org/2000/svg"
   xmlns:sodipodi="http://sodipodi.sourceforge.net/DTD/sodipodi-0.dtd"
   xmlns:inkscape="http://www.inkscape.org/namespaces/inkscape"
   id="svg1"
   sodipodi:docname="group-icon.svg"
   viewBox="0 0 125.01625 98.285347"
   sodipodi:version="0.32"
   _SVGFile__filename="oldscale/actions/groupevent.svg"
   version="1.0"
   y="0"
   x="0"
   inkscape:version="1.0.1 (0767f8302a, 2020-10-17)"
   width="125.01625"
   height="98.285347">
  <defs
     id="defs15" />
  <sodipodi:namedview
     id="base"
     bordercolor="#666666"
     inkscape:pageshadow="2"
     inkscape:window-y="27"
     pagecolor="#ffffff"
     inkscape:window-height="1376"
     inkscape:zoom="4.9119411"
     inkscape:window-x="72"
     borderopacity="1.0"
     inkscape:current-layer="svg1"
     inkscape:cx="18.557382"
     inkscape:cy="5.1498689"
     inkscape:window-width="2488"
     inkscape:pageopacity="0.0"
     inkscape:document-rotation="0"
     showgrid="false"
     fit-margin-top="0"
     fit-margin-left="0"
     fit-margin-right="0"
     fit-margin-bottom="0"
     inkscape:window-maximized="1" />
  <path
     id="path1096"
     style="fill:none;stroke:#ffffff;stroke-width:17.2899;stroke-linecap:round;stroke-linejoin:round"
     d="M 62.575146,8.6450619 C 53.050288,8.6131419 45.391673,15.260965 43.091322,24.072948 40.078096,22.304593 36.726521,21.091642 32.983396,21.078874 21.692312,21.044826 12.471117,30.137703 12.435154,41.428788 c -0.02128,6.632927 3.351788,12.263573 8.246365,16.025849 -5.927926,3.815476 -9.485277,10.31434 -12.0369434,17.223905 L 57.188154,74.878573 C 54.815451,67.90304 51.557507,61.123282 45.816205,57.122672 c 3.153673,-2.736588 5.502968,-6.435025 6.583984,-10.639922 3.006842,1.757715 6.309473,3.047274 10.041958,3.060042 3.775044,0.01064 7.133003,-1.285303 10.173893,-3.060042 1.140599,4.428336 3.630341,8.331059 7.047884,11.10595 -5.803013,3.834628 -9.314188,10.259013 -11.835849,17.089842 l 48.543575,0.200031 c -2.38121,-7.007453 -5.64767,-13.82977 -11.43578,-17.821869 4.54537,-3.745252 7.62669,-9.160972 7.64584,-15.493853 0.0362,-11.291085 -9.12479,-20.447801 -20.413751,-20.483977 -3.770788,-0.01064 -7.135131,1.221463 -10.17602,2.994074 C 79.706483,15.30778 72.05638,8.6748529 62.574082,8.6450619 Z" />
  <path
     id="path960"
     style="fill:#ffffff;fill-rule:evenodd;stroke:#000000;stroke-width:6.64987;stroke-linecap:round;stroke-linejoin:round"
     d="M 82.962504,29.16337 C 82.925824,40.453642 73.73427,49.588147 62.443997,49.55147 51.153725,49.51683 42.01922,40.323236 42.055897,29.032964 42.092577,17.743303 51.284131,8.6102239 62.574403,8.6448629 73.864676,8.6815429 82.99918,17.873708 82.962504,29.16337 Z" />
  <path
     id="path961"
     style="fill:#ffffff;fill-rule:evenodd;stroke:#000000;stroke-width:6.64987;stroke-linecap:round;stroke-linejoin:round"
     d="M 81.206103,56.426291 C 74.37611,60.034858 70.576009,67.235692 67.823229,74.691225 l 48.551641,0.154857 C 113.89308,67.553556 110.51273,60.405699 104.26548,56.499644 97.641284,56.18993 89.272912,56.452779 81.206103,56.426291 Z" />
  <path
     id="path962"
     style="fill:#ffffff;fill-rule:evenodd;stroke:#000000;stroke-width:6.64987;stroke-linecap:round;stroke-linejoin:round"
     d="m 112.55235,41.572278 c -0.0367,11.290272 -9.22823,20.424777 -20.518507,20.3881 -11.290272,-0.03668 -20.424777,-9.228234 -20.3881,-20.518506 0.03464,-11.290272 9.228234,-20.424777 20.518506,-20.388101 11.290271,0.03586 20.422741,9.228234 20.388101,20.518507 z" />
  <path
     id="path963"
     style="fill:#ffffff;fill-rule:evenodd;stroke:#000000;stroke-width:6.64987;stroke-linecap:round;stroke-linejoin:round"
     d="M 22.028449,56.426291 C 15.197844,60.034858 11.397744,67.235692 8.6441476,74.691225 L 57.195783,74.846082 C 54.716039,67.553556 51.335682,60.405699 45.088438,56.499644 38.462204,56.18993 30.093832,56.452779 22.02906,56.426291 Z" />
  <path
     id="path964"
     style="fill:#ffffff;fill-rule:evenodd;stroke:#000000;stroke-width:6.64987;stroke-linecap:round;stroke-linejoin:round"
     d="M 53.372658,41.572278 C 53.338018,52.86255 44.144424,61.997055 32.854151,61.960378 21.563879,61.923698 12.429374,52.732144 12.466051,41.441872 12.502321,30.1516 21.694285,21.017095 32.984557,21.053771 44.27483,21.089631 53.409334,30.282005 53.372658,41.572278 Z" />
  <path
     id="path1101"
     style="fill:none;stroke:#ffffff;stroke-width:17.2899;stroke-linecap:round;stroke-linejoin:round"
     d="m 62.575146,35.842829 c -11.288957,-0.03618 -20.511641,9.124797 -20.547817,20.415881 -0.02128,6.607391 3.323912,12.20399 8.179972,15.959882 -5.9009,3.819732 -9.424842,10.397332 -11.969912,17.289873 L 86.780967,89.6404 C 84.401881,82.645715 81.114145,75.880853 75.343052,71.886627 79.886298,68.147758 82.971875,62.727782 82.991027,56.390645 83.027203,45.101689 73.86623,35.879005 62.575146,35.842829 Z" />
  <path
     id="path965"
     style="fill:#ffffff;fill-rule:evenodd;stroke:#000000;stroke-width:6.64987;stroke-linecap:round;stroke-linejoin:round"
     d="M 51.618295,71.219176 C 44.788302,74.827744 40.986163,82.028578 38.233382,89.484111 l 48.551636,0.154856 C 84.303236,82.346442 80.924916,75.198584 74.675635,71.292529 68.051438,70.984853 59.683066,71.245665 51.618295,71.219176 Z" />
  <path
     id="path966"
     style="fill:#ffffff;fill-rule:evenodd;stroke:#000000;stroke-width:6.64987;stroke-linecap:round;stroke-linejoin:round"
     d="M 82.962504,56.365163 C 82.925824,67.655435 73.73427,76.78994 62.443997,76.753264 51.153725,76.718624 42.01922,67.52503 42.055897,56.234757 c 0.03668,-11.290272 9.228234,-20.424777 20.518506,-20.3881 11.290273,0.03668 20.424777,9.228234 20.388101,20.518506 z" />
  <metadata
     id="metadata12">
    <rdf:RDF>
      <cc:Work>
        <dc:format>image/svg+xml</dc:format>
        <dc:type
           rdf:resource="http://purl.org/dc/dcmitype/StillImage" />
        <cc:license
           rdf:resource="http://creativecommons.org/publicdomain/zero/1.0/" />
        <dc:publisher>
          <cc:Agent
             rdf:about="http://openclipart.org/">
            <dc:title>Openclipart</dc:title>
          </cc:Agent>
        </dc:publisher>
        <dc:title></dc:title>
      </cc:Work>
      <cc:License
         rdf:about="http://creativecommons.org/publicdomain/zero/1.0/">
        <cc:permits
           rdf:resource="http://creativecommons.org/ns#Reproduction" />
        <cc:permits
           rdf:resource="http://creativecommons.org/ns#Distribution" />
        <cc:permits
           rdf:resource="http://creativecommons.org/ns#DerivativeWorks" />
      </cc:License>
    </rdf:RDF>
  </metadata>
</svg>
