<?xml version="1.0" encoding="UTF-8" standalone="no"?>
<svg
   xmlns:dc="http://purl.org/dc/elements/1.1/"
   xmlns:cc="http://creativecommons.org/ns#"
   xmlns:rdf="http://www.w3.org/1999/02/22-rdf-syntax-ns#"
   xmlns:svg="http://www.w3.org/2000/svg"
   xmlns="http://www.w3.org/2000/svg"
   xmlns:sodipodi="http://sodipodi.sourceforge.net/DTD/sodipodi-0.dtd"
   xmlns:inkscape="http://www.inkscape.org/namespaces/inkscape"
   id="svg1"
   sodipodi:docname="plus-icon.svg"
   viewBox="0 0 125 126.2923"
   sodipodi:version="0.32"
   _SVGFile__filename="oldscale/actions/edit_add.svg"
   version="1.0"
   y="0"
   x="0"
   inkscape:version="1.0.1 (0767f8302a, 2020-10-17)"
   width="125"
   height="126.2923">
  <defs
     id="defs8" />
  <sodipodi:namedview
     id="base"
     bordercolor="#666666"
     inkscape:pageshadow="2"
     inkscape:window-y="27"
     pagecolor="#ffffff"
     inkscape:window-height="1376"
     inkscape:zoom="2.2997497"
     inkscape:window-x="72"
     borderopacity="1.0"
     inkscape:current-layer="svg1"
     inkscape:cx="-48.896101"
     inkscape:cy="32.576265"
     inkscape:window-width="2488"
     inkscape:pageopacity="0.0"
     inkscape:document-rotation="0"
     showgrid="false"
     fit-margin-top="0"
     fit-margin-left="0"
     fit-margin-right="0"
     fit-margin-bottom="0"
     inkscape:window-maximized="1" />
  <path
     id="path837"
     style="fill:#ffffff;fill-opacity:1;stroke-width:2.34964"
     d="M 47.884759,48.53185 V 15.639215 c 0,-4.602478 1.259407,-8.341228 3.775874,-11.2174242 C 54.177099,1.4739303 57.772051,0 62.445488,0 c 4.673438,0 8.26839,1.4739303 10.784856,4.4217908 2.589305,2.8761962 3.883958,6.6149462 3.883958,11.2164842 V 48.53091 h 32.462648 c 4.74393,0 8.48456,1.294653 11.21484,3.883958 C 123.59726,54.931334 125,58.491041 125,63.09164 c 0,4.673437 -1.40274,8.303634 -4.20821,10.892939 -2.73028,2.589305 -6.47091,3.881608 -11.21484,3.881608 H 77.114302 v 32.786903 c 0,4.67344 -1.294653,8.44931 -3.883958,11.32527 -2.586956,2.87596 -6.184257,4.31394 -10.784856,4.31394 -4.600598,0 -8.19555,-1.43798 -10.784855,-4.31394 -2.516467,-2.87596 -3.775874,-6.65183 -3.775874,-11.32527 V 77.866187 H 15.422108 C 10.82104,77.866187 7.08229,76.4658 4.2060937,73.660328 1.4020312,70.784367 0,67.262254 0,63.09164 0,58.491041 1.3660817,54.931334 4.0982451,52.414868 6.902543,49.825563 10.677242,48.53091 15.422578,48.53091 h 32.46265 z" />
  <metadata
     id="metadata5">
    <rdf:RDF>
      <cc:Work>
        <dc:format>image/svg+xml</dc:format>
        <dc:type
           rdf:resource="http://purl.org/dc/dcmitype/StillImage" />
        <cc:license
           rdf:resource="http://creativecommons.org/publicdomain/zero/1.0/" />
        <dc:publisher>
          <cc:Agent
             rdf:about="http://openclipart.org/">
            <dc:title>Openclipart</dc:title>
          </cc:Agent>
        </dc:publisher>
        <dc:title></dc:title>
      </cc:Work>
      <cc:License
         rdf:about="http://creativecommons.org/publicdomain/zero/1.0/">
        <cc:permits
           rdf:resource="http://creativecommons.org/ns#Reproduction" />
        <cc:permits
           rdf:resource="http://creativecommons.org/ns#Distribution" />
        <cc:permits
           rdf:resource="http://creativecommons.org/ns#DerivativeWorks" />
      </cc:License>
    </rdf:RDF>
  </metadata>
</svg>
